<svg width="32" height="33" viewBox="0 0 32 33" fill="none" xmlns="http://www.w3.org/2000/svg">
<mask id="path-1-outside-1_17710_30928" maskUnits="userSpaceOnUse" x="0.974609" y="0.37793" width="31" height="32" fill="black">
<rect fill="white" x="0.974609" y="0.37793" width="31" height="32"/>
<path d="M11.6348 2.37793C13.4523 2.37793 15.0126 3.47717 15.6885 5.04688H16.4053C17.0812 3.47717 18.6415 2.37793 20.459 2.37793H22.7969C24.0395 2.37793 25.0469 3.38529 25.0469 4.62793V6.49414C25.0469 6.90109 24.7165 7.23145 24.3096 7.23145H27.1523C28.2374 7.23163 29.1172 8.11121 29.1172 9.19629V12.9902C29.117 14.0751 28.2372 14.9549 27.1523 14.9551H27.6104V27.6826C27.6101 28.7676 26.7305 29.6475 25.6455 29.6475H18.9805C18.9759 30.0505 18.6482 30.3759 18.2441 30.376H13.8486C13.4445 30.376 13.1158 30.0505 13.1113 29.6475H6.44531C5.36031 29.6474 4.48072 28.7676 4.48047 27.6826V14.9551H4.93945C3.85443 14.955 2.97484 14.0752 2.97461 12.9902V9.19629C2.97461 8.11112 3.85429 7.23148 4.93945 7.23145H7.78418C7.37723 7.23145 7.04688 6.90109 7.04688 6.49414V4.62793C7.04688 3.38529 8.05423 2.37793 9.29688 2.37793H11.6348Z"/>
</mask>
<path d="M11.6348 2.37793C13.4523 2.37793 15.0126 3.47717 15.6885 5.04688H16.4053C17.0812 3.47717 18.6415 2.37793 20.459 2.37793H22.7969C24.0395 2.37793 25.0469 3.38529 25.0469 4.62793V6.49414C25.0469 6.90109 24.7165 7.23145 24.3096 7.23145H27.1523C28.2374 7.23163 29.1172 8.11121 29.1172 9.19629V12.9902C29.117 14.0751 28.2372 14.9549 27.1523 14.9551H27.6104V27.6826C27.6101 28.7676 26.7305 29.6475 25.6455 29.6475H18.9805C18.9759 30.0505 18.6482 30.3759 18.2441 30.376H13.8486C13.4445 30.376 13.1158 30.0505 13.1113 29.6475H6.44531C5.36031 29.6474 4.48072 28.7676 4.48047 27.6826V14.9551H4.93945C3.85443 14.955 2.97484 14.0752 2.97461 12.9902V9.19629C2.97461 8.11112 3.85429 7.23148 4.93945 7.23145H7.78418C7.37723 7.23145 7.04688 6.90109 7.04688 6.49414V4.62793C7.04688 3.38529 8.05423 2.37793 9.29688 2.37793H11.6348Z" fill="#E59900"/>
<path d="M11.6348 2.37793L11.6348 0.37793H11.6348V2.37793ZM15.6885 5.04688L13.8515 5.83785L14.3721 7.04688H15.6885V5.04688ZM16.4053 5.04688V7.04688H17.7216L18.2422 5.83785L16.4053 5.04688ZM20.459 2.37793V0.37793H20.459L20.459 2.37793ZM22.7969 2.37793V0.37793V2.37793ZM25.0469 4.62793H27.0469H25.0469ZM27.1523 7.23145L27.1527 5.23145H27.1523V7.23145ZM29.1172 12.9902L31.1172 12.9907V12.9902H29.1172ZM27.1523 14.9551L27.152 12.9551L27.1523 16.9551V14.9551ZM27.6104 14.9551H29.6104V12.9551H27.6104V14.9551ZM27.6104 27.6826L29.6104 27.6831V27.6826H27.6104ZM18.9805 29.6475V27.6475H17.0028L16.9806 29.625L18.9805 29.6475ZM18.2441 30.376V32.376H18.2444L18.2441 30.376ZM13.1113 29.6475L15.1112 29.625L15.089 27.6475H13.1113V29.6475ZM6.44531 29.6475L6.44524 31.6475H6.44531V29.6475ZM4.48047 27.6826H2.48047L2.48047 27.6831L4.48047 27.6826ZM4.48047 14.9551V12.9551H2.48047V14.9551H4.48047ZM4.93945 14.9551V16.9551L4.93952 12.9551L4.93945 14.9551ZM2.97461 12.9902H0.974609V12.9907L2.97461 12.9902ZM4.93945 7.23145V5.23145H4.93938L4.93945 7.23145ZM7.04688 4.62793H5.04688H7.04688ZM9.29688 2.37793V0.37793H9.29687L9.29688 2.37793ZM11.6348 2.37793L11.6348 4.37793C12.6248 4.37793 13.4801 4.97513 13.8515 5.83785L15.6885 5.04688L17.5254 4.2559C16.5451 1.9792 14.2798 0.377937 11.6348 0.37793L11.6348 2.37793ZM15.6885 5.04688V7.04688H16.4053V5.04688V3.04688H15.6885V5.04688ZM16.4053 5.04688L18.2422 5.83785C18.6137 4.97513 19.4689 4.37793 20.459 4.37793L20.459 2.37793L20.459 0.37793C17.814 0.377937 15.5487 1.9792 14.5683 4.2559L16.4053 5.04688ZM20.459 2.37793V4.37793H22.7969V2.37793V0.37793H20.459V2.37793ZM22.7969 2.37793V4.37793C22.9349 4.37793 23.0469 4.48986 23.0469 4.62793H25.0469H27.0469C27.0469 2.28072 25.1441 0.37793 22.7969 0.37793V2.37793ZM25.0469 4.62793H23.0469V6.49414H25.0469H27.0469V4.62793H25.0469ZM25.0469 6.49414H23.0469C23.0469 5.79652 23.6119 5.23145 24.3096 5.23145V7.23145V9.23145C25.8211 9.23145 27.0469 8.00566 27.0469 6.49414H25.0469ZM24.3096 7.23145V9.23145H27.1523V7.23145V5.23145H24.3096V7.23145ZM27.1523 7.23145L27.152 9.23145C27.1522 9.23145 27.1504 9.23143 27.1471 9.23077C27.144 9.23013 27.1408 9.22914 27.1379 9.2279C27.1323 9.22554 27.1292 9.22299 27.1275 9.2213C27.1258 9.21961 27.1232 9.21644 27.1208 9.21076C27.1195 9.20779 27.1185 9.20455 27.1179 9.20136C27.1172 9.19805 27.1172 9.19613 27.1172 9.19629H29.1172H31.1172C31.1172 7.00631 29.3417 5.23182 27.1527 5.23145L27.1523 7.23145ZM29.1172 9.19629H27.1172V12.9902H29.1172H31.1172V9.19629H29.1172ZM29.1172 12.9902L27.1172 12.9898C27.1172 12.99 27.1172 12.9881 27.1179 12.9848C27.1185 12.9816 27.1195 12.9784 27.1208 12.9755C27.1231 12.9699 27.1257 12.9669 27.1273 12.9652C27.1289 12.9636 27.132 12.961 27.1376 12.9587C27.1406 12.9574 27.1438 12.9564 27.1469 12.9558C27.1502 12.9551 27.1521 12.9551 27.152 12.9551L27.1523 14.9551L27.1527 16.9551C29.342 16.9547 31.1167 15.1797 31.1172 12.9907L29.1172 12.9902ZM27.1523 14.9551V16.9551H27.6104V14.9551V12.9551H27.1523V14.9551ZM27.6104 14.9551H25.6104V27.6826H27.6104H29.6104V14.9551H27.6104ZM27.6104 27.6826L25.6104 27.6822C25.6104 27.6824 25.6104 27.6805 25.611 27.6773C25.6117 27.6741 25.6127 27.671 25.6139 27.6681C25.6162 27.6625 25.6188 27.6594 25.6204 27.6578C25.6221 27.6561 25.6253 27.6535 25.631 27.6511C25.6339 27.6498 25.6372 27.6488 25.6404 27.6482C25.6437 27.6475 25.6457 27.6475 25.6455 27.6475V29.6475V31.6475C27.8356 31.6475 29.6098 29.8718 29.6104 27.6831L27.6104 27.6826ZM25.6455 29.6475V27.6475H18.9805V29.6475V31.6475H25.6455V29.6475ZM18.9805 29.6475L16.9806 29.625C16.9883 28.9353 17.5494 28.3761 18.2439 28.376L18.2441 30.376L18.2444 32.376C19.7471 32.3758 20.9636 31.1657 20.9803 29.6699L18.9805 29.6475ZM18.2441 30.376V28.376H13.8486V30.376V32.376H18.2441V30.376ZM13.8486 30.376V28.376C14.5401 28.376 15.1034 28.9322 15.1112 29.625L13.1113 29.6475L11.1115 29.6699C11.1283 31.1689 12.3489 32.376 13.8486 32.376V30.376ZM13.1113 29.6475V27.6475H6.44531V29.6475V31.6475H13.1113V29.6475ZM6.44531 29.6475L6.44538 27.6475C6.44524 27.6475 6.44717 27.6475 6.45049 27.6482C6.4537 27.6488 6.45693 27.6498 6.4599 27.6511C6.46557 27.6535 6.46872 27.6561 6.47039 27.6577C6.47205 27.6594 6.47458 27.6625 6.47693 27.668C6.47816 27.6709 6.47915 27.6741 6.47979 27.6772C6.48046 27.6805 6.48047 27.6824 6.48047 27.6822L4.48047 27.6826L2.48047 27.6831C2.48097 29.8719 4.25533 31.6474 6.44524 31.6475L6.44531 29.6475ZM4.48047 27.6826H6.48047V14.9551H4.48047H2.48047V27.6826H4.48047ZM4.48047 14.9551V16.9551H4.93945V14.9551V12.9551H4.48047V14.9551ZM4.93945 14.9551L4.93952 12.9551C4.93937 12.9551 4.9413 12.9551 4.94461 12.9558C4.94781 12.9564 4.95105 12.9574 4.95401 12.9587C4.95968 12.9611 4.96283 12.9637 4.96451 12.9654C4.96618 12.967 4.96872 12.9701 4.97107 12.9757C4.9723 12.9786 4.97329 12.9818 4.97393 12.9849C4.9746 12.9881 4.97461 12.99 4.97461 12.9898L2.97461 12.9902L0.974609 12.9907C0.975067 15.1795 2.7495 16.955 4.93939 16.9551L4.93945 14.9551ZM2.97461 12.9902H4.97461V9.19629H2.97461H0.974609V12.9902H2.97461ZM2.97461 9.19629H4.97461C4.97461 9.19608 4.9746 9.19797 4.97393 9.20125C4.97328 9.20442 4.97227 9.20763 4.97102 9.21059C4.96863 9.21625 4.96603 9.21944 4.9643 9.22117C4.96257 9.2229 4.95939 9.22549 4.95375 9.22787C4.9508 9.22912 4.9476 9.23012 4.94445 9.23077C4.94118 9.23143 4.93931 9.23145 4.93952 9.23145L4.93945 7.23145L4.93938 5.23145C2.74978 5.23152 0.974609 7.00648 0.974609 9.19629H2.97461ZM4.93945 7.23145V9.23145H7.78418V7.23145V5.23145H4.93945V7.23145ZM7.78418 7.23145V5.23145C8.4818 5.23145 9.04688 5.79652 9.04688 6.49414H7.04688H5.04688C5.04688 8.00566 6.27266 9.23145 7.78418 9.23145V7.23145ZM7.04688 6.49414H9.04688V4.62793H7.04688H5.04688V6.49414H7.04688ZM7.04688 4.62793H9.04688C9.04688 4.48986 9.1588 4.37793 9.29688 4.37793L9.29688 2.37793L9.29687 0.37793C6.94967 0.37793 5.04688 2.28072 5.04688 4.62793H7.04688ZM9.29688 2.37793V4.37793H11.6348V2.37793V0.37793H9.29688V2.37793Z" fill="white" mask="url(#path-1-outside-1_17710_30928)"/>
<path d="M4.48047 14.9551H27.6106V27.6822C27.6106 28.7673 26.7309 29.6471 25.6457 29.6471H6.44538C5.36019 29.6471 4.48047 28.7673 4.48047 27.6822V14.9551Z" fill="#FA5766"/>
<path d="M2.97461 9.19587C2.97461 8.11068 3.85433 7.23096 4.93952 7.23096H27.152C28.2372 7.23096 29.1169 8.11068 29.1169 9.19587V12.9898C29.1169 14.075 28.2372 14.9547 27.152 14.9547H4.93952C3.85433 14.9547 2.97461 14.075 2.97461 12.9898V9.19587Z" fill="#FA5766"/>
<path d="M4.48047 14.9551H27.6106V18.3337H4.48047V14.9551Z" fill="#D73D4F"/>
<path d="M13.1113 14.9551H18.9809V29.639C18.9809 30.046 18.651 30.3759 18.244 30.3759H13.8482C13.4412 30.3759 13.1113 30.046 13.1113 29.639V14.9551Z" fill="#FFD400"/>
<path d="M13.1113 14.9551H18.9809V18.3337H13.1113V14.9551Z" fill="#E59900"/>
<path d="M11.9688 7.23096H20.1237V14.2179C20.1237 14.6248 19.7938 14.9547 19.3868 14.9547H12.7056C12.2986 14.9547 11.9688 14.6248 11.9688 14.2179V7.23096Z" fill="#FFD400"/>
<path d="M16.0469 6.79005C16.0469 4.35331 18.0222 2.37793 20.459 2.37793H22.7969C24.0395 2.37793 25.0469 3.38529 25.0469 4.62793V6.49442C25.0469 6.90137 24.717 7.23127 24.31 7.23127H16.4881C16.2444 7.23127 16.0469 7.03373 16.0469 6.79005Z" fill="#FFD400"/>
<path d="M16.0469 6.79005C16.0469 4.35331 14.0715 2.37793 11.6348 2.37793H9.29688C8.05423 2.37793 7.04688 3.38529 7.04688 4.62793V6.49442C7.04688 6.90137 7.37677 7.23127 7.78372 7.23127H15.6057C15.8493 7.23127 16.0469 7.03373 16.0469 6.79005Z" fill="#FFD400"/>
<path d="M13.3867 7.23096H18.7084V6.52104C18.7084 5.70715 18.0486 5.04735 17.2347 5.04735H14.8604C14.0465 5.04735 13.3867 5.70715 13.3867 6.52104V7.23096Z" fill="#E59900"/>
</svg>
